# xmcd CD database file
#
# Track frame offsets:
#	150
#	15382
#	31185
#	43425
#	60167
#	77245
#	92340
#	112790
#	122690
#	134712
#	152235
#	172105
#	187895
#
# Disc length: 2737 seconds
#
# Revision: 0
# Processed by: cddbd v1.5.1PL2 Copyright (c) Steve Scherf et al.
# Submitted via: CDex 1.51
#
DISCID=9e0aaf0d
DTITLE=The Cat  Empire - Cities
DYEAR=2006
DGENRE=Jazz
TTITLE0=Cities
TTITLE1=Boogaloo
TTITLE2=Siente
TTITLE3=Motion
TTITLE4=Song For The Day
TTITLE5=Know Your Name
TTITLE6=Song For Elias
TTITLE7=Jungle
TTITLE8=Down at The 303
TTITLE9=Side to Side
TTITLE10=Waltz
TTITLE11=Luck Song
TTITLE12=Anymore
EXTD=YEAR: 2006
EXTT0=
EXTT1=
EXTT2=
EXTT3=
EXTT4=
EXTT5=
EXTT6=
EXTT7=
EXTT8=
EXTT9=
EXTT10=
EXTT11=
EXTT12=
PLAYORDER=
